<mxfile host="app.diagrams.net" modified="2024-04-18T01:28:46.813Z" agent="Mozilla/5.0 (Windows NT 10.0; Win64; x64) AppleWebKit/537.36 (KHTML, like Gecko) Chrome/123.0.0.0 Safari/537.36" etag="yC4Q6HciTpmJfyHIu2SG" version="24.2.5" type="github">
  <diagram name="Page-1" id="90a13364-a465-7bf4-72fc-28e22215d7a0">
    <mxGraphModel dx="1434" dy="771" grid="1" gridSize="10" guides="1" tooltips="1" connect="1" arrows="1" fold="1" page="1" pageScale="1.5" pageWidth="1169" pageHeight="826" background="none" math="0" shadow="0">
      <root>
        <mxCell id="0" style=";html=1;" />
        <mxCell id="1" style=";html=1;" parent="0" />
        <mxCell id="PmSagH819ou6p5QeZkUR-2" value="&lt;div&gt;&lt;br&gt;&lt;/div&gt;&lt;div&gt;&lt;br&gt;&lt;/div&gt;&lt;div&gt;网管网用户&lt;/div&gt;" style="shape=actor;whiteSpace=wrap;html=1;" vertex="1" parent="1">
          <mxGeometry x="120" y="676" width="70" height="76" as="geometry" />
        </mxCell>
        <mxCell id="PmSagH819ou6p5QeZkUR-3" value="&lt;div&gt;&lt;br&gt;&lt;/div&gt;&lt;div&gt;&lt;br&gt;&lt;/div&gt;&lt;div&gt;OA用户&lt;/div&gt;" style="shape=actor;whiteSpace=wrap;html=1;" vertex="1" parent="1">
          <mxGeometry x="120" y="480" width="70" height="76" as="geometry" />
        </mxCell>
        <mxCell id="PmSagH819ou6p5QeZkUR-5" value="https://daiwei.gmcc.net:8081&lt;div&gt;NGINX软负载&lt;/div&gt;" style="rounded=1;whiteSpace=wrap;html=1;" vertex="1" parent="1">
          <mxGeometry x="240" y="590" width="160" height="60" as="geometry" />
        </mxCell>
        <mxCell id="PmSagH819ou6p5QeZkUR-6" value="策略&lt;div&gt;/mtex/home/40e046e9-7134-62e5-11b3-c2bfb43fdb8d&lt;/div&gt;" style="rounded=0;whiteSpace=wrap;html=1;" vertex="1" parent="1">
          <mxGeometry x="461" y="440" width="200" height="60" as="geometry" />
        </mxCell>
        <mxCell id="PmSagH819ou6p5QeZkUR-10" value="策略&lt;div&gt;/mtex/home/976b921f-6555-11e7-add8-f02fa7c2cfcd&lt;/div&gt;" style="rounded=0;whiteSpace=wrap;html=1;" vertex="1" parent="1">
          <mxGeometry x="461" y="550" width="200" height="60" as="geometry" />
        </mxCell>
        <mxCell id="PmSagH819ou6p5QeZkUR-11" value="策略&lt;div&gt;/mtex/home/...&lt;/div&gt;" style="rounded=0;whiteSpace=wrap;html=1;" vertex="1" parent="1">
          <mxGeometry x="461" y="650" width="200" height="60" as="geometry" />
        </mxCell>
        <mxCell id="PmSagH819ou6p5QeZkUR-12" value="策略&lt;div&gt;/mtex/home/...&lt;/div&gt;" style="rounded=0;whiteSpace=wrap;html=1;" vertex="1" parent="1">
          <mxGeometry x="461" y="740" width="200" height="60" as="geometry" />
        </mxCell>
        <mxCell id="PmSagH819ou6p5QeZkUR-13" value="A平面集群" style="rounded=1;whiteSpace=wrap;html=1;" vertex="1" parent="1">
          <mxGeometry x="710" y="530" width="120" height="60" as="geometry" />
        </mxCell>
        <mxCell id="PmSagH819ou6p5QeZkUR-14" value="B平面集群" style="rounded=1;whiteSpace=wrap;html=1;" vertex="1" parent="1">
          <mxGeometry x="710" y="650" width="120" height="60" as="geometry" />
        </mxCell>
        <mxCell id="PmSagH819ou6p5QeZkUR-16" value="管理员权限申请流程" style="rounded=0;whiteSpace=wrap;html=1;" vertex="1" parent="1">
          <mxGeometry x="990" y="420" width="140" height="60" as="geometry" />
        </mxCell>
        <mxCell id="PmSagH819ou6p5QeZkUR-17" value="无线通用工单" style="rounded=0;whiteSpace=wrap;html=1;" vertex="1" parent="1">
          <mxGeometry x="990" y="500" width="140" height="60" as="geometry" />
        </mxCell>
        <mxCell id="PmSagH819ou6p5QeZkUR-18" value="传输通用工单" style="rounded=0;whiteSpace=wrap;html=1;" vertex="1" parent="1">
          <mxGeometry x="990" y="590" width="140" height="60" as="geometry" />
        </mxCell>
        <mxCell id="PmSagH819ou6p5QeZkUR-19" value="考核流程" style="rounded=0;whiteSpace=wrap;html=1;" vertex="1" parent="1">
          <mxGeometry x="990" y="676" width="140" height="60" as="geometry" />
        </mxCell>
        <mxCell id="PmSagH819ou6p5QeZkUR-20" value="&lt;span style=&quot;color: rgb(51, 51, 51); font-family: &amp;quot;Microsoft YaHei&amp;quot;, &amp;quot;Helvetica Neue&amp;quot;, Helvetica, Arial, sans-serif; text-align: start; background-color: rgb(255, 255, 255);&quot;&gt;线路巡检完成情况统计&lt;/span&gt;" style="rounded=0;whiteSpace=wrap;html=1;" vertex="1" parent="1">
          <mxGeometry x="990" y="760" width="140" height="60" as="geometry" />
        </mxCell>
      </root>
    </mxGraphModel>
  </diagram>
</mxfile>
